<svg width="512" height="512" viewBox="0 0 512 512" fill="none" xmlns="http://www.w3.org/2000/svg">
<circle cx="256" cy="256" r="256" fill="#09162A"/>
<path d="M256 0C397.385 0 512 114.615 512 256C512 300.089 500.854 341.575 481.226 377.794H474.764V332.8H450.715V377.794H438.303V293.236H407.273V374.691H392.533V339.006H364.606V395.636H353.745V364.606H338.23V379.345H321.164C336.888 362.79 341.226 350.445 339.782 325.818C331.501 327.261 323.879 329.697 311.079 329.697C327.37 304.097 351.806 288.582 358.788 275.394C329.697 252.897 298.553 248.5 264.533 257.552C230.513 266.603 195.879 309.139 176.873 353.745V318.061H151.273V370.036H139.636V341.333H121.018V357.624H103.176V394.861H86.8848V366.158H76.0242V332.8H50.4242V378.57H31.1962C11.3066 342.168 0 300.404 0 256C0 114.615 114.615 0 256 0Z" fill="#EC4899"/>
<path d="M137.309 199.758C102.012 254.449 83.255 314.57 87.6606 394.861H102.788C101.624 321.939 114.036 250.182 147.394 202.861C152.487 214.612 152.48 222.417 153.212 234.279C156.022 231.711 157.161 229.884 158.642 226.133C159.797 234.145 158.971 240.295 158.642 250.182C161.281 247.992 162.479 246.802 164.073 244.752C164.15 259.356 160.97 277.721 160.97 277.721C183.079 257.939 187.733 224.194 161.358 199.758C171.175 203.211 176.558 205.766 185.794 212.17C185.591 208.506 184.955 206.469 183.079 202.861C190.723 209.541 195.969 215.121 204.412 223.03C204.566 218.73 203.297 215.985 200.921 210.23C212.856 217.774 219.364 225.519 230.788 242.812C230.788 242.812 236.218 214.109 211.782 197.042C187.345 179.976 159.418 188.121 159.418 188.121C166.514 183.525 171.921 181.239 187.733 178.424C184.476 175.981 182.587 175.507 179.2 174.933C187.018 174.716 193.151 175.174 204.412 176.097C200.087 172.274 196.891 170.245 190.061 166.788C200.499 169.143 206.264 170.315 216.436 172.218C216.244 169.562 214.751 168.131 211.006 165.624C224.963 166.836 230.356 167.717 237.382 169.503C237.382 169.503 220.315 146.618 192.776 152.436C165.236 158.255 153.212 179.2 153.212 179.2C153.212 179.2 162.102 155.435 153.988 128.388C145.842 101.236 112.873 96.5818 112.873 96.5818C122.564 106.972 127.387 112.44 132.655 120.242C128.838 118.175 126.313 117.79 121.406 117.915C130.642 128.739 134.064 133.328 138.861 140.412L127.612 135.758C141.246 159.436 142.464 167.73 142.352 180.752C142.352 180.752 131.764 154.254 98.9091 148.17C67.4909 142.352 49.6485 167.564 49.6485 167.564C61.2012 164.055 69.9165 163.24 86.8849 162.521C82.2657 164.653 79.5404 166.739 74.4727 171.83C84.0851 169.148 91.1092 168.276 107.83 168.339C103.743 169.379 101.066 170.433 95.4182 173.382C114.766 175.992 122.966 180.573 136.145 190.449C136.145 190.449 106.146 180.832 84.1697 196.655C55.0788 217.6 61.2849 245.915 61.2849 245.915C70.892 231.206 76.6248 224.617 87.2727 214.885C84.9276 221.356 84.6164 225.29 84.1697 232.339C91.2835 221.153 95.3356 215.238 102.788 205.964C101.05 210.796 100.883 213.768 100.848 219.152C108.702 210.456 112.735 206.488 119.467 200.533C117.089 204.596 116.254 206.893 115.2 211.006C123.764 204.859 128.61 202.378 137.309 199.758Z" fill="#F472B6"/>
<path d="M361.115 48.4849C351.424 58.8751 346.601 64.343 341.333 72.1455C345.15 70.0782 347.675 69.6933 352.582 69.8182C343.346 80.6421 339.924 85.2309 335.127 92.3152L346.376 87.6606C332.742 111.339 331.524 119.633 331.636 132.655C331.636 132.655 342.224 106.157 375.079 100.073C406.497 94.2546 424.339 119.467 424.339 119.467C412.787 115.958 404.071 115.143 387.103 114.424C391.722 116.556 394.447 118.642 399.515 123.733C389.903 121.051 382.879 120.179 366.158 120.242C370.245 121.282 372.922 122.336 378.57 125.285C359.222 127.895 351.022 132.476 337.842 142.352C337.842 142.352 367.842 132.735 389.818 148.558C418.909 169.503 412.703 197.818 412.703 197.818C403.096 183.109 397.363 176.52 386.715 166.788C389.06 173.259 389.372 177.193 389.818 184.242C382.704 173.056 378.652 167.141 371.2 157.867C372.938 162.699 373.105 165.671 373.139 171.055C365.285 162.359 361.253 158.391 354.521 152.436C356.899 156.499 357.734 158.796 358.788 162.909C350.223 156.762 345.378 154.281 336.679 151.661C370.83 204.576 389.497 262.575 386.683 339.006H371.27C371.455 268.78 358.768 200.406 326.594 154.764C321.501 166.515 321.508 174.32 320.776 186.182C317.966 183.614 316.826 181.787 315.345 178.036C314.191 186.048 315.017 192.198 315.345 202.085C312.707 199.895 311.509 198.705 309.915 196.655C309.838 211.259 313.018 229.624 313.018 229.624C290.909 209.842 286.255 176.097 312.63 151.661C302.813 155.114 297.43 157.669 288.194 164.073C288.397 160.409 289.033 158.372 290.909 154.764C283.265 161.444 278.019 167.024 269.576 174.933C269.422 170.633 270.691 167.888 273.067 162.133C261.132 169.677 254.624 177.422 243.2 194.715C243.2 194.715 237.77 166.012 262.206 148.945C286.642 131.879 314.57 140.024 314.57 140.024C307.474 135.428 302.067 133.142 286.255 130.327C289.512 127.884 291.401 127.41 294.788 126.836C286.97 126.619 280.837 127.077 269.576 128C273.901 124.177 277.097 122.148 283.927 118.691C273.489 121.046 267.724 122.218 257.552 124.121C257.744 121.465 259.237 120.034 262.982 117.527C249.025 118.739 243.632 119.62 236.606 121.406C236.606 121.406 253.673 98.5212 281.212 104.339C308.752 110.158 320.776 131.103 320.776 131.103C320.776 131.103 311.886 107.338 320 80.2909C328.145 53.1394 361.115 48.4849 361.115 48.4849Z" fill="#F472B6"/>
<path d="M155.152 416.194L155.459 416.431L154.775 416.1L155.152 416.194Z" fill="#22D3EE"/>
<path d="M197.972 353.049C214.936 340.18 229.877 338.417 243.733 340.174C250.647 341.05 257.29 342.802 263.758 344.474C270.234 346.147 276.532 347.739 282.799 348.318C295.356 349.477 305.883 348.027 313.269 346.29C316.961 345.421 319.868 344.48 321.849 343.757C322.84 343.396 323.599 343.089 324.109 342.874C324.364 342.766 324.557 342.681 324.686 342.623C324.75 342.594 324.798 342.572 324.83 342.557C324.845 342.55 324.857 342.544 324.865 342.54C324.869 342.539 324.872 342.537 324.873 342.536C324.874 342.536 324.875 342.535 324.875 342.535L325.771 342.108L325.402 343.03C319.76 357.134 312.818 366.913 304.978 373.569C297.136 380.226 288.414 383.742 279.243 385.352C270.077 386.961 260.46 386.667 250.822 385.708C246.002 385.228 241.171 384.582 236.386 383.923C231.599 383.263 226.859 382.591 222.211 382.058C203.738 379.942 187.062 388.504 174.973 397.643C168.934 402.209 164.053 406.909 160.682 410.468C158.997 412.246 157.689 413.739 156.804 414.786C156.361 415.31 156.024 415.722 155.798 416.003C155.686 416.143 155.6 416.251 155.543 416.323L155.464 416.425C155.462 416.427 155.461 416.429 155.46 416.43L155.459 416.431L155.152 416.194C154.81 416.109 154.779 416.1 154.776 416.099V416.098C154.776 416.097 154.777 416.095 154.777 416.093C154.778 416.088 154.78 416.08 154.783 416.071C154.787 416.053 154.794 416.025 154.804 415.989C154.823 415.916 154.852 415.808 154.89 415.668C154.967 415.386 155.085 414.97 155.246 414.433C155.569 413.358 156.066 411.797 156.768 409.845C158.173 405.94 160.398 400.469 163.68 394.196C170.244 381.653 181.041 365.893 197.972 353.049Z" fill="#22D3EE"/>
<path d="M276.744 270.705C293.179 267.506 312.631 269.291 335.289 279.696L335.926 279.989L335.34 280.373L335.339 280.374C335.339 280.374 335.338 280.375 335.336 280.376C335.334 280.378 335.329 280.381 335.323 280.384C335.312 280.392 335.294 280.404 335.271 280.419C335.225 280.45 335.154 280.497 335.062 280.56C334.878 280.685 334.603 280.874 334.248 281.124C333.536 281.626 332.497 282.376 331.192 283.37C328.582 285.358 324.907 288.32 320.65 292.214C312.135 300.003 301.299 311.516 292.014 326.412L291.845 326.683L291.547 326.569C264.678 316.324 243.338 318.455 228.724 323.133C221.415 325.474 215.784 328.453 211.983 330.844C210.082 332.04 208.639 333.088 207.673 333.837C207.191 334.211 206.826 334.51 206.584 334.715C206.463 334.817 206.373 334.895 206.313 334.948C206.283 334.974 206.261 334.995 206.246 335.008C206.239 335.014 206.233 335.019 206.23 335.022L206.226 335.026L205.604 334.595L205.964 334.74C205.629 334.604 205.606 334.595 205.605 334.593C205.605 334.593 205.605 334.591 205.606 334.59C205.607 334.586 205.609 334.582 205.611 334.576C205.616 334.564 205.624 334.546 205.633 334.522C205.653 334.475 205.682 334.406 205.72 334.315C205.797 334.132 205.913 333.862 206.067 333.513C206.375 332.815 206.837 331.797 207.458 330.518C208.699 327.96 210.573 324.354 213.105 320.158C218.166 311.767 225.861 301.005 236.395 291.542C246.931 282.077 260.313 273.903 276.744 270.705Z" fill="#22D3EE"/>
<path d="M370.858 484.849C336.316 502.219 297.3 512 256 512C214.7 512 175.684 502.219 141.142 484.849H370.858Z" fill="#2563EB"/>
<path d="M205.969 412.703H458.451C453.342 419.294 447.918 425.628 442.202 431.684L250.957 431.321H250.891C250.846 431.321 250.779 431.322 250.692 431.323C250.517 431.324 250.259 431.326 249.927 431.33C249.264 431.338 248.305 431.355 247.126 431.388C244.766 431.455 241.524 431.588 237.992 431.854C234.46 432.12 230.643 432.519 227.132 433.116C223.928 433.661 221 434.369 218.78 435.281C220.553 436.418 223.492 437.415 227.024 438.265C230.933 439.206 235.5 439.956 239.858 440.537C244.214 441.118 248.353 441.529 251.404 441.796C252.929 441.929 254.181 442.026 255.052 442.09C255.488 442.121 255.828 442.144 256.059 442.16C256.175 442.168 256.263 442.174 256.323 442.177C256.352 442.179 256.375 442.18 256.389 442.181C256.392 442.181 256.395 442.182 256.398 442.182H431.705C422.955 450.443 413.621 458.094 403.774 465.067H108.226C98.998 458.532 90.2217 451.403 81.953 443.733H131.48C144.536 443.349 155.977 435.574 167.788 427.846C179.555 420.146 191.675 412.507 205.969 412.703Z" fill="#2563EB"/>
<path d="M141.958 413.158C140.385 422.198 135.85 426.758 131.677 429.043C129.598 430.182 127.619 430.751 126.159 431.036C125.429 431.178 124.827 431.249 124.405 431.285C124.195 431.303 124.029 431.312 123.915 431.317C123.858 431.319 123.814 431.32 123.783 431.321C123.768 431.321 123.756 431.321 123.748 431.321H69.4568C63.8663 425.375 58.5564 419.163 53.5493 412.703H142.037L141.958 413.158Z" fill="#2563EB"/>
<circle cx="29.8667" cy="233.115" r="2.71515" fill="#F472B6"/>
<circle cx="464.291" cy="247.079" r="2.71515" fill="#F472B6"/>
<circle cx="465.067" cy="185.018" r="2.71515" fill="#F472B6"/>
<circle cx="192.776" cy="46.9333" r="2.71515" fill="#F472B6"/>
</svg>
